<svg id="svg" version="1.1" xmlns="http://www.w3.org/2000/svg" xmlns:xlink="http://www.w3.org/1999/xlink" width="400" height="400" viewBox="0, 0, 400,400"><g id="svgg"><path id="path0" d="M163.572 2.612 C 22.564 28.077,-46.105 191.187,33.490 311.600 C 111.409 429.481,288.591 429.481,366.510 311.600 C 464.106 163.953,337.510 -28.798,163.572 2.612 M244.353 23.334 C 371.262 56.407,424.414 210.972,343.487 311.616 L 334.146 323.232 333.117 303.486 C 330.534 253.947,303.609 219.945,253.339 202.739 C 251.115 201.978,252.424 199.910,260.085 192.080 C 312.024 139.001,274.357 49.820,200.000 49.820 C 125.643 49.820,87.976 139.001,139.915 192.080 C 147.576 199.910,148.885 201.978,146.661 202.739 C 96.391 219.945,69.466 253.947,66.883 303.486 L 65.854 323.232 56.513 311.616 C -50.035 179.109,79.464 -19.636,244.353 23.334 M226.427 73.566 C 290.329 102.985,270.172 197.561,200.000 197.561 C 125.547 197.561,109.969 93.693,180.953 70.560 C 192.324 66.854,215.121 68.361,226.427 73.566 M246.406 220.354 C 290.869 231.678,315.447 266.699,315.447 318.728 L 315.447 340.838 306.098 347.773 C 245.602 392.645,154.398 392.645,93.902 347.773 L 84.553 340.838 84.553 318.728 C 84.553 267.076,108.919 232.013,152.846 220.454 C 165.892 217.020,233.036 216.949,246.406 220.354 " stroke="none" fill="#000000" fill-rule="evenodd"></path></g></svg>