<svg version="1.1" xmlns="http://www.w3.org/2000/svg" xmlns:xlink="http://www.w3.org/1999/xlink" width="400" height="400" viewBox="0, 0, 400,400">
<defs>
    <linearGradient id="grad" x1="50%" x2="50%" y1="100%" y2="0%">
        <stop offset="0%" stop-color="#0062E0"/>
        <stop offset="100%" stop-color="#19AFFF"/>
    </linearGradient>
</defs>
<g fill="url(#grad)">
<path d="M163.572 2.612 C 22.564 28.077,-46.105 191.187,33.490 311.600 C 111.409 429.481,288.591 429.481,366.510 311.600 C 464.106 163.953,337.510 -28.798,163.572 2.612 M226.427 73.566 C 290.329 102.985,270.172 197.561,200.000 197.561 C 125.547 197.561,109.969 93.693,180.953 70.560 C 192.324 66.854,215.121 68.361,226.427 73.566 M246.406 220.354 C 290.869 231.678,315.447 266.699,315.447 318.728 L 315.447 340.838 306.098 347.773 C 245.602 392.645,154.398 392.645,93.902 347.773 L 84.553 340.838 84.553 318.728 C 84.553 267.076,108.919 232.013,152.846 220.454 C 165.892 217.020,233.036 216.949,246.406 220.354 " stroke="none"></path>
</g>
</svg>