<?xml version="1.0" standalone="no"?>
<!DOCTYPE svg PUBLIC "-//W3C//DTD SVG 20010904//EN" "http://www.w3.org/TR/2001/REC-SVG-20010904/DTD/svg10.dtd">
<svg version="1.0" xmlns="http://www.w3.org/2000/svg" width="345.000000pt" height="358.000000pt" viewBox="0 0 345.000000 358.000000" preserveAspectRatio="xMidYMid meet">
<defs>
	<linearGradient id="grad1" x1="0%" y1="0%" x2="100%" y2="100%">
		<stop offset="0%" style="stop-color:#0062E0;stop-opacity:1" />
		<stop offset="100%" style="stop-color:#19AFFF;stop-opacity:1" />
	</linearGradient>
</defs>
<defs>
	<linearGradient id="grad2" x1="0%" y1="0%" x2="100%" y2="100%">
		<stop offset="0%" style="stop-color:#0062E0;stop-opacity:1" />
		<stop offset="100%" style="stop-color:#0062E0;stop-opacity:1" />
	</linearGradient>
</defs>
<defs>
	<linearGradient id="grad3" x1="0%" y1="0%" x2="0%" y2="100%">
		<stop offset="0%" style="stop-color:#0062E0;stop-opacity:1" />
		<stop offset="100%" style="stop-color:#19AFFF;stop-opacity:1" />
	</linearGradient>
</defs>
<g transform="translate(0.000000,358.000000) scale(0.100000,-0.100000)" stroke="none">
	<path fill="url(#grad1)" d="M2460 3548 c-73 -41 -152 -102 -284 -217 -311 -272 -517 -612 -621 -1022 -37 -144 -30 -141 21 11 115 345 305 635 537 821 145 117 346 244 360 228 4 -3 42 -102 127 -325 7 -18 -4 -29 -79 -83 -176 -123 -367 -326 -495 -523 -72 -110 -164 -302 -211 -437 -43 -127 -42 -152 3 -44 47 113 149 289 233 401 89 119 255 286 372 373 85 64 235 156 241 148 2 -3 130 -338 161 -420 4 -12 -7 -24 -40 -43 -152 -90 -368 -287 -487 -446 -243 -324 -399 -715 -471 -1180 -3 -20 27 4 132 110 158 159 248 233 415 344 274 183 611 313 891 346 55 6 119 14 143 16 l42 5 0 146 0 146 -46 -7 c-26 -3 -53 -6 -60 -6 -10 0 -14 -16 -14 -60 l0 -60 -38 0 c-71 0 -226 -32 -347 -71 -211 -69 -460 -205 -676 -370 -44 -34 -83 -58 -86 -55 -3 3 45 57 108 119 217 215 558 404 946 524 80 24 91 31 87 48 -2 11 -58 301 -124 644 -65 343 -121 625 -123 627 -2 2 -77 -30 -167 -72 -90 -41 -167 -71 -171 -67 -4 4 -55 114 -114 243 -59 129 -108 236 -109 237 -1 1 -26 -12 -56 -29z m544 -545 c11 -53 136 -873 136 -891 0 -14 -17 -24 -72 -41 -265 -85 -548 -262 -767 -480 -103 -103 -234 -265 -281 -349 -29 -52 -44 -55 -23 -5 150 362 503 751 969 1070 l101 69 -129 279 c-70 154 -127 283 -125 288 2 7 165 87 179 87 3 0 9 -12 12 -27z"/>
	<path fill="url(#grad1)" d="M3105 1424 c-367 -66 -780 -285 -1155 -613 l-35 -31 70 31 c376 167 810 261 1273 276 l193 6 -6 28 c-3 15 -23 92 -43 170 l-37 144 -90 2 c-50 1 -126 -5 -170 -13z"/>
	<path fill="url(#grad2)" d="M734 2382 c-49 -24 -84 -65 -84 -102 0 -57 83 -119 161 -120 42 0 115 -57 288 -225 204 -198 367 -413 455 -598 71 -152 71 -165 0 -54 -74 114 -131 184 -244 301 -178 183 -335 298 -570 415 -74 38 -149 76 -167 85 -77 41 -189 29 -249 -27 -91 -84 -2 -192 156 -189 52 0 81 -6 150 -35 217 -90 453 -229 601 -356 75 -64 176 -174 168 -182 -3 -2 -29 15 -59 39 -248 196 -592 369 -850 427 -47 10 -107 30 -134 44 -120 61 -296 4 -296 -97 0 -81 155 -146 255 -108 65 25 413 -78 640 -189 250 -123 465 -279 679 -496 l129 -130 -7 60 c-28 232 -126 541 -252 795 -112 224 -254 422 -406 565 -39 38 -81 86 -92 109 -29 56 -72 78 -160 83 -55 3 -80 0 -112 -15z"/>
	<path fill="url(#grad2)" d="M86 1479 c-7 -19 -86 -329 -86 -335 0 -2 33 -4 73 -4 479 -1 1068 -129 1475 -320 56 -27 100 -45 97 -40 -11 18 -211 177 -310 247 -301 211 -646 365 -956 427 -165 33 -287 43 -293 25z"/>
</g>
<g fill="url(#grad3)" transform="translate(0.000000,358.000000) scale(0.100000,-0.100000)" stroke="none">
	<path d="M330 812 c0 -47 1 -49 35 -58 l36 -9 0 -305 0 -305 -38 -11 c-36 -10 -38 -13 -41 -57 l-3 -47 176 0 176 0 -3 48 -3 47 -65 10 -65 10 0 125 0 125 90 0 90 0 5 -35 c5 -34 7 -35 50 -38 l45 -3 0 136 0 135 -47 0 -48 0 0 -40 0 -40 -95 0 -96 0 3 118 3 117 165 0 165 0 9 -52 9 -53 48 0 49 0 0 115 0 115 -325 0 -325 0 0 -48z"/>
	<path d="M2462 813 c3 -46 4 -48 41 -56 l37 -9 0 -308 0 -308 -40 -7 -40 -7 0 -49 0 -49 335 0 335 0 0 120 0 120 -50 0 c-53 0 -52 1 -62 -90 l-3 -25 -172 -3 -173 -2 0 125 0 126 88 -3 87 -3 5 -35 c5 -33 7 -35 47 -38 l42 -3 3 135 3 136 -47 0 -47 0 -3 -37 -3 -38 -87 -3 -88 -3 0 121 0 120 164 0 c184 0 168 7 181 -77 l7 -43 47 0 47 0 0 120 0 120 -329 0 -328 0 3 -47z"/>
	<path d="M2040 593 c-41 -7 -83 -25 -117 -50 l-33 -24 0 35 0 36 -89 0 c-51 0 -93 -4 -96 -10 -4 -6 -4 -29 0 -51 6 -34 11 -41 36 -46 l29 -5 0 -173 0 -173 -29 -7 c-25 -5 -31 -12 -36 -45 -4 -22 -4 -44 0 -50 3 -6 44 -10 95 -10 l88 0 4 173 c3 187 11 216 68 259 38 28 117 33 160 11 60 -31 80 -86 80 -219 0 -109 -1 -111 -25 -122 -21 -10 -25 -18 -25 -56 l0 -44 108 -4 c59 -3 107 -4 108 -4 1 1 4 20 8 44 6 40 5 43 -21 53 l-28 9 3 125 c4 147 -11 215 -61 272 -49 56 -149 89 -227 76z"/>
	<path d="M970 541 c0 -44 3 -49 25 -55 l25 -6 0 -130 c0 -105 4 -139 20 -183 37 -99 111 -147 228 -147 53 0 79 6 120 26 29 14 52 30 52 35 0 5 4 9 9 9 4 0 8 -17 7 -37 -1 -42 -14 -39 119 -35 l65 2 0 49 c0 47 -2 50 -30 56 l-30 7 0 229 0 230 -62 -3 -63 -3 -5 -175 c-6 -200 -14 -226 -80 -260 -76 -39 -166 -17 -205 50 -18 31 -20 51 -19 187 1 84 5 164 8 178 l6 25 -95 0 -95 0 0 -49z"/>
</g>
</svg>