<?xml version="1.0" standalone="no"?>
<!DOCTYPE svg PUBLIC "-//W3C//DTD SVG 20010904//EN"
 "http://www.w3.org/TR/2001/REC-SVG-20010904/DTD/svg10.dtd">
<svg version="1.0" xmlns="http://www.w3.org/2000/svg"
 width="442.000000pt" height="423.000000pt" viewBox="0 0 442.000000 423.000000"
 preserveAspectRatio="xMidYMid meet">

<g transform="translate(0.000000,423.000000) scale(0.100000,-0.100000)"
fill="#65676b" stroke="none">
<path d="M845 4214 c-416 -52 -730 -335 -810 -729 -14 -71 -15 -180 -12 -950
3 -984 -3 -905 87 -1091 93 -193 231 -331 424 -424 183 -89 130 -84 913 -87
l692 -4 528 -441 c292 -244 548 -449 572 -460 76 -35 172 -6 219 65 l27 41 3
396 3 397 87 6 c114 8 186 28 307 86 190 91 331 232 425 425 90 186 84 107 87
1091 3 770 2 879 -12 950 -62 306 -285 567 -575 674 -159 59 -59 55 -1560 57
-756 1 -1388 0 -1405 -2z m2774 -379 c95 -23 177 -70 257 -150 81 -80 126
-162 149 -270 21 -101 22 -1586 1 -1686 -23 -106 -71 -194 -151 -274 -123
-123 -241 -165 -472 -165 -142 0 -173 -7 -216 -48 -61 -57 -62 -62 -67 -368
l-5 -282 -395 330 c-217 181 -412 338 -432 349 -36 18 -66 19 -720 19 -752 0
-758 1 -884 62 -92 44 -197 149 -242 240 -62 126 -62 124 -62 978 0 853 0 855
62 980 62 127 215 251 354 284 91 22 2730 23 2823 1z"/>
</g>
</svg>
