<?xml version="1.0" standalone="no"?>
<!DOCTYPE svg PUBLIC "-//W3C//DTD SVG 20010904//EN"
 "http://www.w3.org/TR/2001/REC-SVG-20010904/DTD/svg10.dtd">
<svg version="1.0" xmlns="http://www.w3.org/2000/svg"
 width="228.000000pt" height="234.000000pt" viewBox="0 0 228.000000 234.000000"
 preserveAspectRatio="xMidYMid meet">

<g transform="translate(0.000000,234.000000) scale(0.100000,-0.100000)"
fill="#000000" stroke="none">
<path d="M200 2321 c-78 -24 -157 -99 -178 -169 -9 -29 -12 -289 -12 -988 0
-933 1 -950 21 -994 25 -55 71 -105 124 -133 40 -22 42 -22 838 -25 547 -2
804 1 817 8 28 15 25 51 -10 107 -60 98 -58 201 6 305 20 32 24 52 26 157 l3
120 170 -164 c157 -152 173 -165 207 -165 44 0 68 27 68 79 0 32 -17 52 -210
245 -183 184 -208 212 -196 225 54 62 96 204 96 328 0 132 -37 247 -109 343
l-26 35 -5 307 -5 306 -25 28 c-52 56 -27 54 -832 53 -409 0 -754 -4 -768 -8z
m1207 -91 c261 0 304 -2 317 -16 14 -13 16 -50 16 -250 0 -129 -2 -234 -5
-234 -2 0 -26 14 -52 30 -204 130 -506 92 -687 -84 -101 -98 -154 -204 -176
-353 -34 -218 103 -473 309 -576 182 -91 375 -87 557 12 l54 29 0 -124 0 -124
-675 0 -675 0 0 660 c0 363 2 660 5 660 3 0 33 -22 66 -50 63 -53 88 -60 113
-34 14 13 16 49 16 234 0 165 3 220 13 224 6 3 122 4 257 1 135 -3 381 -5 547
-5z m-917 -155 c0 -85 -2 -155 -4 -155 -2 0 -20 14 -41 30 -21 17 -44 30 -51
30 -7 0 -29 -13 -47 -30 -19 -16 -37 -30 -41 -30 -3 0 -6 70 -6 155 l0 155 95
0 95 0 0 -155z m-290 -72 c0 -178 2 -209 17 -225 18 -21 53 -24 71 -6 9 9 12
-126 12 -609 l0 -621 -55 -7 c-30 -3 -75 -17 -100 -30 l-45 -24 0 797 c0 511
4 810 10 834 11 37 59 98 79 98 8 0 11 -63 11 -207z m1374 -351 c334 -156 340
-625 11 -782 -122 -58 -285 -52 -400 16 -68 39 -134 114 -172 192 -100 208
-13 461 195 566 74 38 116 46 214 42 71 -3 98 -9 152 -34z m105 -1264 c-23
-68 -23 -158 0 -225 l18 -53 -734 0 c-710 0 -735 1 -772 20 -66 33 -101 114
-82 187 11 41 60 96 101 112 16 6 298 10 756 10 l731 1 -18 -52z"/>
<path d="M259 299 c-8 -16 -8 -28 0 -45 l11 -24 598 0 c452 0 601 3 610 12 15
15 15 51 0 66 -9 9 -158 12 -610 12 l-597 0 -12 -21z"/>
</g>
</svg>
