<?xml version="1.0" standalone="no"?>
<!DOCTYPE svg PUBLIC "-//W3C//DTD SVG 20010904//EN"
 "http://www.w3.org/TR/2001/REC-SVG-20010904/DTD/svg10.dtd">
<svg version="1.0" xmlns="http://www.w3.org/2000/svg"
 width="228.000000pt" height="234.000000pt" viewBox="0 0 228.000000 234.000000"
 preserveAspectRatio="xMidYMid meet">
<defs>
    <linearGradient id="grad" x1="50%" x2="50%" y1="100%" y2="0%">
        <stop offset="0%" stop-color="#19AFFF"/>
        <stop offset="100%" stop-color="#0062E0"/>
    </linearGradient>
</defs>
<g transform="translate(0.000000,234.000000) scale(0.100000,-0.100000)"
fill="url(#grad)" stroke="none">
<path d="M200 2321 c-78 -24 -157 -99 -178 -169 -9 -29 -12 -289 -12 -988 0
-933 1 -950 21 -994 25 -55 71 -105 124 -133 40 -22 41 -22 844 -25 592 -2
807 1 817 9 22 18 17 54 -16 106 -59 96 -57 203 6 305 20 32 24 52 26 157 l3
121 170 -165 c157 -153 172 -165 207 -165 44 0 68 27 68 79 0 32 -17 52 -210
245 -183 184 -208 212 -196 225 25 28 64 116 80 178 21 80 21 233 0 304 -20
65 -57 142 -93 189 l-26 35 -5 307 -5 306 -25 28 c-52 56 -27 54 -832 53 -409
0 -754 -4 -768 -8z m290 -246 c0 -85 -2 -155 -4 -155 -2 0 -20 14 -41 30 -21
17 -44 30 -51 30 -7 0 -29 -13 -47 -30 -19 -16 -37 -30 -41 -30 -3 0 -6 70 -6
155 l0 155 95 0 95 0 0 -155z m1084 -423 c334 -156 340 -625 11 -782 -122 -58
-285 -52 -400 16 -68 39 -134 114 -172 192 -100 208 -13 461 195 566 74 38
116 46 214 42 71 -3 98 -9 152 -34z m105 -1264 c-23 -68 -23 -158 0 -225 l18
-53 -734 0 c-710 0 -735 1 -772 20 -66 33 -101 114 -82 187 11 41 60 96 101
112 16 6 298 10 756 10 l731 1 -18 -52z"/>
<path d="M259 299 c-8 -16 -8 -28 0 -45 l11 -24 598 0 c452 0 601 3 610 12 15
15 15 51 0 66 -9 9 -158 12 -610 12 l-597 0 -12 -21z"/>
</g>
</svg>
