<?xml version="1.0" encoding="UTF-8"?>
<!DOCTYPE svg  PUBLIC '-//W3C//DTD SVG 20010904//EN'  'http://www.w3.org/TR/2001/REC-SVG-20010904/DTD/svg10.dtd'>
<svg width="512pt" height="512pt" version="1.0" viewBox="0 0 512 512" xmlns="http://www.w3.org/2000/svg">
<defs>
<linearGradient id="a" x1="50%" x2="50%" y1="100%">
<stop stop-color="#19AFFF" offset="0"/>
<stop stop-color="#0062E0" offset="1"/>
</linearGradient>
</defs>
<g transform="translate(0 512) scale(.1 -.1)" fill="url(#a)">
<path d="m326 5109c-113-27-233-129-289-246l-32-68v-2236-2235l37-75c46-93 122-168 215-212l68-32h1695c1617 0 1697 1 1747 18 79 28 167 98 214 169 73 114 69 50 67 1161l-3 997-25-24c-14-13-58-61-98-107-95-109-919-1065-953-1106-35-42-41-45-545-252l-442-181h-674c-665 0-676 0-701 20-48 38-44 134 7 163 16 9 183 13 645 17l624 5 63 245c35 135 63 248 64 252 0 4-311 9-691 10l-691 3-30 34c-26 29-29 40-25 73 7 49 29 75 76 88 22 6 297 10 726 10h690l24 85c23 85 25 87 157 241 74 85 134 159 134 164 0 6-328 10-874 10-864 0-874 0-899 20-32 26-44 79-27 121 26 62-23 59 1027 59h958l210 246c116 136 212 251 213 255 2 5-518 9-1168 9-1284 0-1214-3-1240 59-17 42-5 95 27 121 26 20 32 20 1294 20h1268l339 393c187 215 374 426 416 467s76 82 76 92 5 18 10 18c6 0 10 6 10 14s9 18 20 21 20 11 20 17 8 21 18 32c17 21 17 21-5 2l-22-18-3 379-3 378-34 70c-38 76-103 148-171 188-103 60-9 57-1820 56-957-1-1671-5-1694-10zm3120-678c36-16 42-24 48-60 8-50-12-104-45-121-17-10-346-13-1416-13h-1393l-35 24c-31 21-35 29-35 67 0 59 23 99 63 111 19 5 584 9 1402 10 1316 1 1372 0 1411-18zm-1-711c58-31 68-124 19-171l-26-24-1376-3c-757-2-1395 0-1418 3-46 6-70 37-75 95-4 49 8 79 40 98 26 16 133 17 1420 16 1111-1 1397-4 1416-14z"/>
<path d="m4410 4119c0-5-3-8-8-6-4 3-23-11-42-30-19-20-28-32-20-28s0-5-17-21c-40-36-135-155-131-165 3-8 178-162 178-157 0 2 28-22 61-54 34-32 66-55 71-52 4 3 7 1 6-4-2-5 39-46 90-92 91-80 94-82 111-64 10 11 59 67 110 127 93 109 101 129 82 180-10 25-212 207-230 207-6 0-11 4-11 9 0 4-28 32-62 62-35 29-56 45-48 34s-4-1-26 23c-34 34-48 42-77 42-21 0-37-5-37-11z"/>
<path d="m3744 3372c-164-191-289-341-279-333 11 8-1-6-26-30s-38-39-29-34c9 6-7-12-35-40-28-27-42-43-30-35 11 8-4-9-35-39-30-29-46-47-35-40s-2-9-30-35c-27-27-41-42-30-35s-2-9-30-35c-27-27-41-42-30-35s-2-9-30-35c-27-27-41-42-30-35s-1-7-27-32c-48-45-715-820-720-836-2-5 33-40 77-78s73-61 65-50c-8 10 14-9 48-43 35-34 68-59 73-56s8 2 7-3c-2-5 16-26 40-47 23-21 42-37 42-34 0 2 25-20 56-49 32-29 61-50 67-46 6 3 7 1 3-5-3-6 3-16 15-22 17-9 24-9 33 2 72 81 136 160 121 148-11-8 0 5 25 30 26 25 37 38 25 30-11-8 0 5 25 30s39 41 30 35c-9-5 7 12 34 39 28 27 42 43 31 35-11-7 3 9 30 35 28 27 41 42 30 35s3 9 30 35c28 27 41 42 30 35s3 9 30 35c28 27 41 42 30 35s1 7 26 32c26 24 85 89 131 144s219 258 383 450c164 193 290 343 279 335s1 5 26 30c26 25 37 38 25 30-11-8 2 8 30 35 28 28 42 43 30 35-11-8 2 7 30 34 27 27 41 43 30 36s3 9 30 35c28 26 41 41 30 34s3 9 30 35c28 27 41 42 30 35s3 9 30 35c28 27 43 44 35 40-9-5-5 0 8 12l23 21-54 46c-30 25-58 43-62 39-3-4-5-2-3 3 1 6-19 30-46 55s-46 38-42 30 0-5-10 7c-9 12-78 76-154 142l-138 120-298-347z"/>
<path d="m2256 1528c-22-66-36-133-32-145 4-9 2-11-6-7-7 5-9 0-6-14 3-12 3-22-1-24-12-5-63-217-55-229 5-8 3-9-6-4-10 6-12 3-8-13 4-12 3-22-1-22-9 0-34-101-27-108 7-6 196 70 196 79 0 5 6 6 14 3 7-3 20 1 27 9 8 7 20 12 28 9 9-3 11 0 6 8s-4 11 2 7c9-6 257 87 276 103 4 4-19 30-51 58-33 28-62 48-66 44s-6-2-4 3c2 6-16 28-39 49-24 21-43 36-43 33s-28 22-61 54c-92 89-138 123-143 107z"/>
</g>
</svg>