<?xml version="1.0" standalone="no"?>
<!DOCTYPE svg PUBLIC "-//W3C//DTD SVG 20010904//EN"
 "http://www.w3.org/TR/2001/REC-SVG-20010904/DTD/svg10.dtd">
<svg version="1.0" xmlns="http://www.w3.org/2000/svg"
 width="512.000000pt" height="512.000000pt" viewBox="0 0 512.000000 512.000000"
 preserveAspectRatio="xMidYMid meet">

<g transform="translate(0.000000,512.000000) scale(0.100000,-0.100000)"
fill="#000000" stroke="none">
<path d="M326 5109 c-113 -27 -233 -129 -289 -246 l-32 -68 0 -2236 0 -2235
37 -75 c46 -93 122 -168 215 -212 l68 -32 1674 -3 c1833 -3 1737 -5 1840 55
69 40 134 111 172 188 l34 70 5 1027 5 1028 266 307 c602 695 740 859 766 913
50 100 33 233 -42 321 -53 63 -421 372 -472 396 -100 47 -206 40 -299 -20 -19
-12 -76 -71 -127 -132 l-92 -110 -5 380 -5 380 -34 70 c-38 76 -103 148 -171
188 -103 60 -9 57 -1820 56 -957 -1 -1671 -5 -1694 -10z m3409 -234 c36 -22
57 -45 77 -84 l28 -53 0 -472 -1 -471 -335 -387 -335 -388 -1260 0 c-1104 0
-1264 -2 -1289 -15 -38 -20 -50 -43 -50 -98 0 -35 6 -50 26 -71 l27 -26 1179
0 c725 0 1178 -4 1176 -9 -1 -5 -97 -120 -212 -255 l-209 -246 -963 0 -962 0
-31 -26 c-27 -22 -31 -32 -31 -74 0 -37 6 -56 24 -77 l24 -28 876 -3 c482 -1
876 -5 876 -7 0 -3 -60 -76 -134 -162 -82 -94 -136 -167 -140 -185 -3 -16 -13
-53 -21 -83 l-16 -55 -721 -2 -720 -3 -24 -28 c-18 -21 -24 -40 -24 -77 0 -42
4 -52 31 -74 l31 -26 684 0 c464 0 684 -3 684 -10 0 -9 -97 -399 -116 -467
l-6 -23 -598 0 c-329 0 -611 -3 -629 -6 -50 -10 -81 -49 -81 -101 0 -55 12
-78 50 -98 25 -13 120 -15 692 -15 l663 0 480 198 480 197 333 385 c183 212
390 450 458 529 l125 143 -3 -864 -3 -864 -30 -59 c-23 -45 -42 -66 -79 -90
l-49 -30 -1626 -3 c-1209 -2 -1640 0 -1680 8 -71 16 -142 83 -159 152 -17 67
-17 4309 0 4376 15 60 87 134 144 150 26 7 562 10 1680 9 l1641 -2 48 -30z
m747 -759 c27 -15 384 -318 405 -345 7 -9 13 -34 13 -56 0 -37 -9 -50 -99
-155 -55 -63 -104 -115 -109 -115 -5 0 -120 96 -255 214 l-246 213 95 117 c83
102 125 139 159 140 6 1 22 -5 37 -13z m-169 -640 c125 -109 226 -202 225
-206 -2 -4 -380 -448 -841 -988 l-838 -981 -252 215 c-139 119 -252 219 -252
224 0 4 379 450 843 989 l843 981 23 -17 c12 -10 124 -108 249 -217z m-1839
-2125 c182 -158 187 -165 165 -176 -20 -11 -303 -126 -476 -194 -34 -13 -51
-16 -48 -8 2 7 34 127 70 267 81 313 74 292 88 283 7 -4 97 -81 201 -172z"/>
<path d="M618 4434 c-36 -19 -48 -43 -48 -97 0 -52 31 -91 81 -101 55 -11
2730 -7 2770 4 53 15 74 43 74 101 0 40 -5 54 -28 76 l-27 28 -1398 2 c-1219
2 -1400 0 -1424 -13z"/>
<path d="M601 3704 c-27 -22 -31 -32 -31 -74 0 -37 6 -56 24 -77 l24 -28 1405
-3 1405 -2 31 26 c36 30 49 81 31 125 -27 63 81 59 -1456 59 l-1402 0 -31 -26z"/>
</g>
</svg>
