<?xml version="1.0" standalone="no"?>
<!DOCTYPE svg PUBLIC "-//W3C//DTD SVG 20010904//EN"
 "http://www.w3.org/TR/2001/REC-SVG-20010904/DTD/svg10.dtd">
<svg version="1.0" xmlns="http://www.w3.org/2000/svg"
 width="508.000000pt" height="512.000000pt" viewBox="0 0 508.000000 512.000000"
 preserveAspectRatio="xMidYMid meet">

<g transform="translate(0.000000,512.000000) scale(0.100000,-0.100000)"
fill="#000000" stroke="none">
<path d="M588 2102 c-104 -107 -120 -169 -66 -262 33 -55 48 -143 55 -310 6
-175 -5 -284 -43 -418 -29 -104 -97 -246 -154 -322 -46 -62 -57 -92 -44 -126
10 -26 262 -287 293 -304 38 -20 69 -9 166 55 111 73 222 122 351 157 79 20
111 23 289 23 225 0 308 -12 393 -56 96 -51 156 -33 267 80 l70 71 -745 745
c-410 410 -748 745 -751 745 -3 0 -40 -35 -81 -78z"/>
</g>
<g transform="translate(0.000000,512.000000) scale(0.100000,-0.100000)"
fill="#55ff77" stroke="none">
<path d="M4004 5109 c-17 -5 -53 -28 -80 -51 -71 -62 -872 -767 -1504 -1323
-299 -264 -815 -718 -1145 -1008 -330 -290 -601 -531 -603 -535 -1 -4 335
-344 746 -755 l748 -748 244 283 c303 349 950 1096 1319 1523 152 176 481 556
731 845 250 289 483 558 518 599 95 109 111 164 73 246 -26 56 -872 899 -923
920 -41 17 -77 18 -124 4z"/>
<path d="M178 495 c-212 -216 -215 -236 -48 -320 82 -41 90 -48 88 -73 -2 -43
11 -71 42 -87 43 -22 2866 -23 2909 0 50 25 58 96 15 136 l-26 24 -1374 0
c-756 0 -1374 0 -1374 1 0 1 47 40 105 88 58 48 105 90 105 93 0 3 -26 31 -57
63 -32 31 -96 97 -143 146 l-85 89 -157 -160z"/>
</g>
</svg>
