<?xml version="1.0" standalone="no"?>
<!DOCTYPE svg PUBLIC "-//W3C//DTD SVG 20010904//EN"
 "http://www.w3.org/TR/2001/REC-SVG-20010904/DTD/svg10.dtd">
<svg version="1.0" xmlns="http://www.w3.org/2000/svg"
 width="228.000000pt" height="214.000000pt" viewBox="0 0 228.000000 214.000000"
 preserveAspectRatio="xMidYMid meet">

<g transform="translate(0.000000,214.000000) scale(0.100000,-0.100000)"
fill="#000000" stroke="none">
<path d="M1074 2112 c-17 -9 -261 -216 -542 -460 -543 -470 -540 -467 -520
-537 4 -16 19 -41 33 -55 24 -23 34 -25 143 -30 l117 -5 5 -455 c5 -432 6
-457 25 -489 39 -66 61 -71 322 -71 127 0 239 3 248 6 41 16 45 49 45 362 0
218 3 301 12 310 17 17 339 17 356 0 9 -9 12 -94 12 -320 l0 -309 25 -24 24
-25 237 0 c266 0 286 4 326 69 23 36 23 40 28 491 l5 455 118 5 119 5 29 33
c40 45 41 109 2 151 -52 55 -1028 893 -1051 902 -36 14 -84 10 -118 -9z m654
-621 c199 -173 362 -318 362 -322 0 -5 -42 -9 -94 -9 -86 0 -98 -2 -123 -24
l-28 -24 -5 -484 -5 -483 -187 -3 -188 -2 0 304 c0 325 -2 342 -49 373 -23 16
-56 18 -247 21 -255 4 -295 -2 -324 -51 -19 -30 -20 -52 -20 -340 l0 -307
-187 2 -188 3 -5 483 -5 484 -28 24 c-25 22 -37 24 -123 24 -52 0 -94 4 -94 9
0 4 214 193 476 419 l476 411 112 -97 c61 -53 274 -238 474 -411z"/>
</g>
</svg>
