<?xml version="1.0" standalone="no"?>
<!DOCTYPE svg PUBLIC "-//W3C//DTD SVG 20010904//EN"
 "http://www.w3.org/TR/2001/REC-SVG-20010904/DTD/svg10.dtd">
<svg version="1.0" xmlns="http://www.w3.org/2000/svg"
 width="384.000000pt" height="360.000000pt" viewBox="0 0 384.000000 360.000000"
 preserveAspectRatio="xMidYMid meet">
<defs>
    <linearGradient id="grad" x1="50%" x2="50%" y1="100%" y2="0%">
        <stop offset="0%" stop-color="#0062E0"/>
        <stop offset="100%" stop-color="#19AFFF"/>
    </linearGradient>
</defs>
<g transform="translate(0.000000,360.000000) scale(0.100000,-0.100000)"
fill="url(#grad)" stroke="none">
<path d="M2090 3581 c-67 -21 -134 -62 -155 -95 -10 -14 -43 -170 -80 -365
-55 -295 -68 -350 -98 -413 -92 -190 -273 -409 -499 -605 l-48 -41 0 -925 0
-926 88 -42 c175 -83 281 -128 344 -146 58 -17 117 -18 723 -18 618 0 664 1
715 19 113 38 210 121 256 219 19 41 24 69 24 129 l0 76 53 30 c66 38 131 103
160 162 29 59 36 195 14 271 l-16 52 58 57 c81 80 116 154 116 246 0 60 -5 80
-33 134 l-32 63 50 53 c28 29 64 82 80 116 26 54 30 75 30 145 0 188 -107 316
-306 368 -48 12 -140 15 -516 15 -252 0 -458 2 -458 4 0 2 11 52 24 112 49
214 59 328 53 584 -4 178 -11 258 -25 330 -46 219 -114 340 -217 389 -59 28
-222 29 -305 2z"/>
<path d="M113 2130 c-39 -22 -61 -44 -83 -83 l-30 -52 0 -915 0 -915 30 -52
c22 -39 44 -61 83 -83 l52 -30 285 0 286 0 54 33 c39 24 61 46 84 87 l31 55 3
905 c2 882 0 960 -27 960 -4 0 -15 14 -25 30 -9 17 -41 44 -69 60 l-52 30
-285 0 -285 0 -52 -30z"/>
</g>
</svg>
