<?xml version="1.0" standalone="no"?>
<!DOCTYPE svg PUBLIC "-//W3C//DTD SVG 20010904//EN"
 "http://www.w3.org/TR/2001/REC-SVG-20010904/DTD/svg10.dtd">
<svg version="1.0" xmlns="http://www.w3.org/2000/svg"
 width="384.000000pt" height="360.000000pt" viewBox="0 0 384.000000 360.000000"
 preserveAspectRatio="xMidYMid meet">

<g transform="translate(0.000000,360.000000) scale(0.100000,-0.100000)"
fill="#65676b" stroke="none">
<path d="M2121 3585 c-84 -24 -166 -72 -185 -108 -9 -18 -44 -180 -77 -362
-68 -371 -79 -403 -193 -574 -86 -128 -205 -262 -356 -398 -69 -62 -127 -113
-130 -113 -3 0 -15 16 -27 35 -12 18 -44 46 -70 62 l-48 28 -436 0 -436 0 -49
-30 c-30 -19 -60 -49 -79 -79 l-30 -49 0 -917 0 -917 30 -49 c19 -30 49 -60
79 -79 l49 -30 436 0 436 0 47 28 c32 19 64 51 99 101 l52 74 71 -33 c39 -18
115 -54 168 -79 186 -89 162 -87 919 -84 l664 3 68 32 c84 40 165 116 203 190
25 50 29 69 29 139 l0 82 49 23 c64 30 133 101 165 169 22 47 26 68 25 145 -1
53 -7 106 -16 130 l-15 39 62 61 c79 78 108 138 113 230 3 64 1 76 -31 139
l-36 70 56 60 c105 113 135 230 94 364 -39 130 -153 223 -316 257 -56 12 -161
15 -511 15 l-441 0 28 128 c47 210 62 372 56 567 -7 190 -19 292 -48 410 -38
151 -109 264 -193 307 -54 28 -196 35 -275 13z m177 -386 c52 -55 92 -270 94
-503 1 -169 -11 -263 -55 -441 l-23 -90 -44 -7 c-29 -5 -55 -18 -75 -38 -28
-29 -30 -35 -30 -110 0 -74 2 -82 28 -107 l27 -28 583 -5 582 -5 47 -23 c61
-30 88 -68 88 -122 0 -59 -22 -94 -93 -146 -34 -25 -65 -51 -69 -58 -16 -24
-7 -65 23 -106 93 -128 78 -217 -47 -289 -34 -20 -69 -42 -78 -50 -24 -20 -20
-81 9 -143 18 -38 25 -70 25 -114 0 -59 -2 -63 -37 -95 -21 -19 -70 -47 -109
-62 -84 -33 -100 -56 -84 -122 5 -22 10 -66 10 -98 0 -51 -4 -62 -28 -87 -16
-15 -46 -33 -68 -39 -62 -17 -1174 -15 -1240 3 -28 7 -125 47 -215 89 -90 41
-190 83 -221 93 l-58 18 0 591 0 592 118 93 c146 116 408 379 484 485 162 229
187 292 254 637 30 155 57 285 62 289 6 7 44 13 99 17 12 1 31 -7 41 -19z
m-1338 -2119 l0 -790 -315 0 -315 0 0 790 0 790 315 0 315 0 0 -790z"/>
</g>
</svg>
