<?xml version="1.0" standalone="no"?>
<!DOCTYPE svg PUBLIC "-//W3C//DTD SVG 20010904//EN" "http://www.w3.org/TR/2001/REC-SVG-20010904/DTD/svg10.dtd">
<svg version="1.0" xmlns="http://www.w3.org/2000/svg" width="185.000000pt" height="185.000000pt" viewBox="0 0 185.000000 185.000000" preserveAspectRatio="xMidYMid meet">
<g transform="translate(0.000000,185.000000) scale(0.100000,-0.100000)" fill="white" stroke="none">
<path d="M935 1640 c-11 -5 -119 -95 -239 -199 l-220 -191 -216 0 c-213 0 -217 0 -238 -23 -21 -23 -22 -30 -22 -299 0 -249 2 -278 18 -298 17 -21 23 -21 229 -21 l212 0 48 -38 c26 -21 129 -109 228 -196 99 -86 189 -161 200 -166 29 -14 73 5 85 37 7 17 9 266 8 695 -3 579 -5 670 -18 683 -21 20 -51 26 -75 16z"/>
<path d="M1512 1624 c-37 -26 -29 -65 38 -166 68 -104 113 -212 142 -342 16 -74 19 -116 15 -226 -7 -205 -51 -342 -168 -521 -27 -41 -49 -84 -49 -95 0 -36 28 -64 66 -64 30 0 39 7 80 62 157 214 234 501 204 762 -21 188 -79 351 -175 496 -70 105 -106 127 -153 94z"/>
<path d="M1350 1457 c-13 -7 -29 -24 -34 -39 -8 -22 -3 -37 34 -97 76 -127 120 -272 120 -398 0 -129 -52 -299 -121 -399 -39 -57 -42 -99 -10 -126 47 -37 83 -17 141 81 143 241 159 554 41 807 -41 89 -91 161 -118 173 -29 13 -23 13 -53 -2z"/>
<path d="M1145 1255 c-30 -29 -31 -40 -4 -90 83 -159 87 -302 11 -463 -32 -67 -32 -94 1 -117 51 -36 88 -9 135 95 70 156 70 332 -2 494 -45 101 -94 129 -141 81z"/>
</g>
</svg>