<?xml version="1.0" standalone="no"?>
<!DOCTYPE svg PUBLIC "-//W3C//DTD SVG 20010904//EN"
 "http://www.w3.org/TR/2001/REC-SVG-20010904/DTD/svg10.dtd">
<svg version="1.0" xmlns="http://www.w3.org/2000/svg"
 width="221.000000pt" height="228.000000pt" viewBox="0 0 221.000000 228.000000"
 preserveAspectRatio="xMidYMid meet">

<g transform="translate(0.000000,228.000000) scale(0.100000,-0.100000)"
fill="#000000" stroke="none">
<path d="M65 2271 c-11 -5 -29 -19 -40 -31 -20 -22 -20 -36 -20 -1101 l0
-1079 28 -27 27 -28 1045 0 1045 0 27 28 28 27 0 1080 0 1080 -28 27 -27 28
-1033 2 c-567 1 -1041 -2 -1052 -6z m2008 -111 c15 -12 31 -38 37 -58 14 -51
14 -1873 0 -1924 -6 -20 -22 -46 -37 -58 -25 -20 -34 -20 -968 -20 -934 0
-943 0 -968 20 -15 12 -31 38 -37 58 -14 51 -14 1873 0 1924 6 20 22 46 37 58
25 20 34 20 968 20 934 0 943 0 968 -20z"/>
<path d="M142 2137 l-22 -23 0 -973 0 -972 25 -24 24 -25 934 0 c930 0 934 0
961 21 l26 20 0 979 0 979 -26 20 c-27 21 -31 21 -964 21 l-937 0 -21 -23z
m1116 -222 c92 -93 132 -140 128 -151 -7 -18 10 -54 26 -54 6 0 3 9 -7 20 -10
11 -16 23 -12 26 6 6 48 -62 73 -121 11 -24 18 -67 18 -110 1 -83 -29 -157
-89 -224 l-37 -41 -253 0 -253 0 -37 43 c-96 109 -116 235 -58 357 33 69 62
113 63 93 0 -6 -4 -15 -10 -18 -5 -3 -10 -12 -10 -18 0 -7 7 -3 15 7 8 11 13
28 9 38 -4 14 28 52 129 153 74 74 142 135 152 135 10 0 79 -61 153 -135z
m102 -705 l0 -30 -255 0 -255 0 0 30 0 30 255 0 255 0 0 -30z m-424 -131 c14
-15 19 -36 19 -76 0 -68 -24 -93 -91 -93 l-44 0 0 45 c0 28 -4 45 -12 45 -9 0
-9 3 0 12 7 7 12 29 12 50 l0 38 48 0 c37 0 54 -5 68 -21z m238 -67 c41 -99
41 -102 22 -102 -8 0 -17 14 -21 30 -6 28 -10 30 -50 30 -39 0 -44 -3 -54 -30
-5 -16 -15 -30 -20 -30 -16 0 -14 6 21 102 23 60 38 88 49 88 11 0 28 -29 53
-88z m186 -7 c0 -78 -3 -95 -15 -95 -12 0 -15 17 -15 95 0 78 3 95 15 95 12 0
15 -17 15 -95z m-230 -115 c0 -5 -4 -10 -10 -10 -5 0 -10 5 -10 10 0 6 5 10
10 10 6 0 10 -4 10 -10z m-285 -70 c3 -11 3 -29 0 -40 -6 -18 -2 -20 44 -20
l51 0 0 40 c0 22 5 40 10 40 6 0 10 -40 10 -100 0 -60 -4 -100 -10 -100 -5 0
-10 20 -10 45 l0 45 -49 0 -49 0 2 -41 c0 -26 -4 -44 -11 -46 -10 -4 -13 20
-13 96 0 94 10 128 25 81z m280 14 c22 -9 45 -57 45 -94 0 -37 -23 -85 -45
-94 -71 -27 -125 18 -125 102 0 68 61 110 125 86z m203 -10 c12 -8 22 -22 22
-30 0 -20 -13 -18 -33 6 -30 36 -81 19 -92 -30 -16 -73 26 -127 80 -102 14 6
25 18 25 27 0 8 7 15 15 15 22 0 18 -18 -10 -45 -34 -35 -86 -34 -114 1 -31
39 -29 117 4 149 28 29 70 32 103 9z m-230 -212 c2 -7 -3 -12 -12 -12 -9 0
-16 7 -16 16 0 17 22 14 28 -4z m502 -26 c0 0 -28 -2 -62 -2 -61 -1 -62 -1
-28 11 24 8 44 9 63 3 15 -6 27 -11 27 -12z m-744 -4 c-10 -2 -22 0 -28 6 -6
6 0 7 19 4 21 -5 23 -7 9 -10z m743 -22 c102 -29 149 -167 88 -258 -92 -140
-320 -75 -320 91 0 129 104 204 232 167z m-1139 -65 l0 -65 80 0 80 0 0 65 c0
58 2 65 20 65 19 0 20 -7 20 -165 0 -158 -1 -165 -20 -165 -18 0 -20 7 -20 80
l0 80 -80 0 -80 0 0 -80 c0 -79 0 -80 -25 -80 l-25 0 0 165 0 165 25 0 c24 0
25 -2 25 -65z m496 -91 c41 -86 74 -160 74 -165 0 -5 -11 -9 -26 -9 -21 0 -29
8 -46 50 l-21 50 -81 0 -82 0 -19 -50 c-17 -43 -23 -50 -46 -50 l-27 0 40 93
c22 50 54 125 70 165 28 66 33 72 60 72 28 0 33 -7 104 -156z m224 33 l75
-122 3 123 c2 114 4 122 22 122 19 0 20 -8 20 -165 0 -157 -1 -165 -20 -165
-14 0 -40 34 -97 126 l-78 126 -3 -126 c-2 -118 -4 -126 -22 -126 -19 0 -20 8
-20 165 0 165 0 165 23 165 17 -1 37 -26 97 -123z m620 -42 l0 -165 -25 0 -25
0 0 165 0 165 25 0 25 0 0 -165z m-232 -208 c4 -20 -25 -34 -40 -19 -15 15 -1
44 19 40 10 -2 19 -11 21 -21z"/>
<path d="M1034 1982 l-61 -58 -5 -66 c-3 -48 -1 -65 8 -61 7 2 15 16 19 30 6
25 91 123 107 123 18 0 98 -84 110 -116 21 -59 34 -48 30 24 l-5 67 -61 57
c-33 31 -65 57 -71 57 -5 0 -38 -26 -71 -57z"/>
<path d="M1051 1891 c-21 -21 -42 -50 -46 -63 -4 -12 -18 -32 -32 -43 -13 -11
-25 -32 -27 -47 -1 -15 -10 -36 -18 -45 -9 -10 -21 -36 -28 -57 -7 -22 -21
-49 -31 -60 -26 -27 -34 -82 -18 -114 7 -15 13 -32 14 -39 0 -6 4 -15 9 -20 5
-4 6 -3 2 5 -8 14 10 17 18 3 10 -16 75 -22 114 -11 50 13 72 38 79 89 5 35 2
44 -25 71 -29 29 -82 42 -82 20 0 -5 13 -10 29 -10 60 0 82 -80 35 -127 -22
-22 -32 -25 -72 -20 -75 8 -113 70 -80 130 6 12 14 38 18 57 6 41 34 49 37 10
1 -22 1 -22 -4 -2 -6 29 -23 28 -23 -2 0 -26 24 -51 40 -41 10 6 7 106 -4 124
-3 5 5 24 19 42 14 19 32 50 41 69 18 39 72 100 89 100 18 0 73 -62 89 -101 8
-19 22 -41 30 -49 9 -7 16 -19 16 -26 0 -8 7 -14 16 -14 20 0 9 40 -16 58 -11
8 -29 34 -41 58 -20 43 -74 94 -97 94 -7 0 -30 -18 -51 -39z"/>
<path d="M939 1888 c-1 -7 -1 -19 0 -26 4 -23 -40 -150 -59 -174 -10 -13 -34
-33 -54 -43 -20 -11 -36 -26 -36 -33 0 -10 10 -7 33 10 17 13 39 28 47 33 13
8 13 6 1 -8 -7 -9 -30 -27 -50 -39 -20 -12 -38 -23 -40 -24 -2 -2 6 -15 18
-30 11 -15 21 -34 21 -43 -1 -9 -7 -2 -14 15 -15 34 -59 71 -64 54 -2 -6 8
-24 23 -42 23 -27 26 -39 23 -82 -3 -28 -8 -59 -13 -70 -6 -14 -5 -18 6 -14
17 6 36 57 44 120 3 26 18 64 32 85 14 20 27 53 29 71 1 19 9 41 17 50 29 33
47 83 54 142 4 42 2 60 -6 60 -6 0 -12 -6 -12 -12z"/>
<path d="M1067 1861 c-20 -22 -39 -52 -43 -66 -3 -14 -10 -25 -16 -25 -16 0
-38 -63 -26 -77 27 -33 114 4 106 45 -7 35 -78 22 -78 -14 0 -20 27 -17 39 4
6 9 11 12 11 7 0 -17 -22 -35 -42 -35 -25 0 -24 46 1 60 11 5 23 20 26 32 4
13 19 38 33 57 l26 34 28 -33 c15 -19 28 -40 28 -48 0 -7 12 -24 26 -37 29
-27 29 -58 0 -63 -18 -4 -36 13 -36 33 1 6 5 2 11 -7 12 -21 39 -24 39 -4 0
39 -73 48 -78 9 -6 -41 79 -73 107 -39 9 10 9 20 0 40 -7 14 -16 26 -20 26 -4
0 -17 19 -27 43 -11 23 -33 55 -49 70 l-30 28 -36 -40z"/>
<path d="M1250 1867 c0 -47 24 -122 54 -167 26 -40 116 -108 115 -87 0 7 -21
26 -47 42 -26 17 -52 41 -59 55 -20 42 -44 134 -41 159 2 13 -3 26 -9 28 -9 3
-13 -6 -13 -30z"/>
<path d="M903 1859 c-7 -7 -13 -24 -13 -38 0 -54 -21 -100 -60 -134 -44 -38
-52 -54 -17 -36 36 19 77 61 77 81 0 10 7 29 16 43 19 29 16 104 -3 84z"/>
<path d="M1290 1840 c0 -19 7 -48 15 -64 8 -15 15 -36 15 -46 0 -17 74 -90 92
-90 16 0 8 17 -15 29 -33 18 -65 70 -73 121 -4 25 -13 54 -20 65 -13 18 -14
17 -14 -15z"/>
<path d="M1082 1835 c-27 -35 -28 -61 -2 -68 45 -12 9 -96 -42 -98 -13 -1 -32
0 -43 1 -31 3 -5 -19 32 -26 24 -5 36 -1 52 15 l21 21 29 -21 c22 -16 36 -19
60 -14 34 7 54 28 25 25 -63 -7 -104 19 -104 66 0 17 6 28 20 31 27 7 25 36
-3 69 l-23 27 -22 -28z"/>
<path d="M862 1808 c-6 -7 -14 -27 -18 -43 -8 -36 -33 -67 -47 -58 -6 3 -7 1
-3 -5 4 -7 2 -12 -3 -12 -6 0 -11 -4 -11 -10 0 -39 75 36 90 89 12 46 9 59 -8
39z"/>
<path d="M1330 1806 c0 -33 33 -97 60 -116 44 -31 59 -23 18 10 -23 19 -38 41
-42 64 -7 37 -36 71 -36 42z"/>
<path d="M1256 1699 c-10 -30 -17 -109 -11 -119 11 -18 45 9 45 35 0 30 -17
33 -23 5 -4 -17 -4 -16 -3 2 2 37 30 28 36 -12 4 -19 12 -45 18 -57 48 -88
-82 -180 -153 -108 -46 45 -23 125 36 125 16 0 29 5 29 10 0 22 -53 9 -82 -20
-27 -27 -30 -36 -25 -73 11 -79 109 -121 183 -78 42 25 59 21 20 -4 -89 -59
-216 -2 -216 97 0 50 43 98 88 98 24 0 31 5 35 26 4 20 1 24 -12 18 -37 -15
-62 -15 -86 0 -23 15 -27 15 -56 0 -30 -15 -54 -15 -90 0 -13 6 -16 2 -12 -18
3 -14 8 -25 12 -24 56 7 111 -41 111 -97 0 -51 -27 -92 -72 -110 -45 -18 -76
-19 -114 -5 -38 15 -42 5 -5 -14 47 -25 114 -21 150 9 16 14 33 35 36 46 7 20
8 19 25 -9 43 -71 126 -84 199 -32 23 17 39 35 36 40 -3 4 0 20 6 33 15 32 5
87 -20 114 -11 11 -25 39 -32 62 -14 47 -46 83 -53 60z"/>
<path d="M1323 1633 c6 -16 22 -43 34 -61 12 -18 25 -54 28 -80 8 -63 27 -114
44 -120 11 -4 12 0 6 14 -5 11 -10 39 -13 64 -3 36 2 53 23 84 14 21 25 42 23
47 -5 16 -49 -22 -64 -55 -7 -17 -13 -24 -14 -15 0 9 10 29 22 44 16 21 19 30
10 33 -7 2 -33 19 -58 38 -24 19 -46 34 -49 34 -2 0 1 -12 8 -27z"/>
<path d="M755 1630 c-7 -21 0 -40 16 -40 5 0 9 14 9 30 0 34 -15 40 -25 10z"/>
<path d="M1437 1644 c-11 -11 -8 -54 3 -54 6 0 13 6 16 14 7 17 -9 50 -19 40z"/>
<path d="M900 1550 c-17 -32 -11 -60 19 -91 39 -39 91 -40 120 -3 37 46 19
103 -32 105 -12 1 -39 3 -59 4 -29 3 -40 -1 -48 -15z m66 -12 c-26 -37 -21
-58 14 -58 24 0 30 4 30 21 0 15 -5 19 -15 15 -8 -3 -15 -1 -15 5 0 20 35 4
38 -18 4 -29 -30 -48 -58 -33 -24 13 -26 47 -3 72 22 25 27 23 9 -4z"/>
<path d="M1201 1559 c-18 -4 -37 -13 -42 -21 -27 -43 16 -108 71 -108 59 0
109 75 80 120 -10 16 -56 20 -109 9z m59 -18 c16 -31 12 -59 -10 -71 -28 -15
-62 4 -58 33 3 22 38 38 38 18 0 -6 -7 -8 -15 -5 -10 4 -15 0 -15 -15 0 -17 6
-21 30 -21 35 0 40 21 14 58 -8 12 -11 22 -5 22 6 0 15 -9 21 -19z"/>
<path d="M736 1493 c4 -27 11 -59 16 -73 7 -20 11 -22 18 -10 15 23 12 83 -6
108 -25 36 -36 27 -28 -25z"/>
<path d="M1446 1518 c-18 -25 -21 -85 -6 -108 7 -12 11 -10 18 10 5 14 12 46
16 73 8 52 -3 61 -28 25z"/>
<path d="M832 1450 c0 -14 2 -19 5 -12 2 6 2 18 0 25 -3 6 -5 1 -5 -13z"/>
<path d="M1371 1452 c-1 -29 23 -87 40 -98 9 -5 8 2 -4 19 -9 15 -21 44 -26
64 -6 25 -9 30 -10 15z"/>
<path d="M1092 1405 c-28 -61 -126 -74 -203 -26 -27 17 -49 25 -49 20 0 -6 -9
-23 -20 -38 l-19 -28 32 -31 32 -31 242 -1 243 -1 28 32 29 32 -21 38 -21 38
-34 -26 c-66 -50 -175 -41 -211 19 l-17 28 -11 -25z"/>
<path d="M807 1382 l-17 -37 20 24 c11 13 20 29 20 37 0 21 -3 17 -23 -24z"/>
<path d="M840 1050 c0 -23 5 -30 19 -30 11 0 23 -4 26 -10 4 -6 -5 -10 -20
-10 -24 0 -26 -3 -23 -32 3 -31 6 -33 37 -31 41 2 51 15 51 74 0 54 -13 69
-57 69 -30 0 -33 -3 -33 -30z"/>
<path d="M1110 1045 c-6 -16 -13 -36 -15 -42 -3 -9 6 -13 25 -13 34 0 36 5 16
51 l-14 34 -12 -30z"/>
<path d="M1046 805 c-27 -27 -31 -83 -9 -113 43 -58 108 -27 108 50 0 62 -61
101 -99 63z"/>
<path d="M1484 521 c-44 -19 -64 -59 -64 -127 0 -56 3 -66 30 -92 30 -31 83
-47 116 -36 72 23 94 56 94 138 0 47 -4 61 -28 87 -23 26 -37 32 -78 35 -27 2
-59 0 -70 -5z"/>
<path d="M840 485 c-7 -22 -21 -57 -32 -77 l-18 -38 64 0 65 0 -23 53 c-13 28
-27 63 -33 77 -10 24 -10 24 -23 -15z"/>
</g>
</svg>
