<?xml version="1.0" standalone="no"?>
<!DOCTYPE svg PUBLIC "-//W3C//DTD SVG 20010904//EN"
 "http://www.w3.org/TR/2001/REC-SVG-20010904/DTD/svg10.dtd">
<svg version="1.0" xmlns="http://www.w3.org/2000/svg"
 width="86.000000pt" height="122.000000pt" viewBox="0 0 86.000000 122.000000"
 preserveAspectRatio="xMidYMid meet">

<g transform="translate(0.000000,122.000000) scale(0.100000,-0.100000)"
fill="#45628c" stroke="none">
<path d="M330 1189 c-60 -27 -107 -74 -136 -134 -23 -48 -24 -59 -24 -265 0
-239 7 -269 73 -338 54 -57 102 -77 187 -77 85 0 133 20 187 77 66 69 73 99
73 338 0 206 -1 217 -24 265 -62 130 -212 190 -336 134z m180 -91 c30 -15 53
-37 67 -63 21 -38 23 -51 23 -245 0 -194 -2 -207 -23 -245 -26 -47 -92 -85
-147 -85 -55 0 -121 38 -147 85 -21 38 -23 51 -23 245 0 194 2 207 23 245 45
79 141 106 227 63z"/>
<path d="M10 655 c-17 -20 -6 -108 21 -177 52 -131 160 -226 302 -262 l52 -13
3 -52 3 -51 -98 0 c-104 0 -123 -7 -123 -45 0 -43 12 -45 260 -45 248 0 260 2
260 45 0 38 -19 45 -123 45 l-98 0 3 51 3 52 52 13 c173 44 295 176 325 352
13 79 5 102 -37 102 -31 0 -41 -16 -49 -77 -9 -75 -38 -136 -91 -192 -133
-142 -357 -142 -491 1 -54 58 -83 118 -91 191 -3 28 -10 58 -16 65 -13 17 -52
15 -67 -3z"/>
</g>
</svg>
