<?xml version="1.0" standalone="no"?>
<!DOCTYPE svg PUBLIC "-//W3C//DTD SVG 20010904//EN"
 "http://www.w3.org/TR/2001/REC-SVG-20010904/DTD/svg10.dtd">
<svg version="1.0" xmlns="http://www.w3.org/2000/svg"
 width="86.000000pt" height="122.000000pt" viewBox="0 0 86.000000 122.000000"
 preserveAspectRatio="xMidYMid meet">

<g transform="translate(0.000000,122.000000) scale(0.100000,-0.100000)"
fill="#45628c" stroke="none">
<path d="M372 1209 c-54 -10 -100 -38 -145 -88 -57 -63 -62 -90 -62 -336 0
-210 1 -222 23 -267 29 -58 97 -120 150 -136 106 -32 225 -2 291 73 63 72 66
86 66 335 0 215 -1 227 -23 272 -26 52 -88 113 -136 133 -45 18 -114 24 -164
14z"/>
<path d="M10 655 c-17 -20 -6 -108 21 -177 52 -131 160 -226 302 -262 l52 -13
3 -52 3 -51 -98 0 c-104 0 -123 -7 -123 -45 0 -43 12 -45 260 -45 248 0 260 2
260 45 0 38 -19 45 -123 45 l-98 0 3 51 3 52 52 13 c173 44 295 176 325 352
13 79 5 102 -37 102 -31 0 -41 -16 -49 -77 -9 -75 -38 -136 -91 -192 -133
-142 -357 -142 -491 1 -54 58 -83 118 -91 191 -3 28 -10 58 -16 65 -13 17 -52
15 -67 -3z"/>
</g>
</svg>
