<svg id="Layer_1" xmlns="http://www.w3.org/2000/svg" viewBox="0 0 129 73"><style>.st0{fill:none;stroke:#fff;stroke-width:2;stroke-miterlimit:10}.st1{fill:#fff}.st2,.st3,.st4{fill:none;stroke:#fff;stroke-width:2;stroke-linecap:round;stroke-miterlimit:10}.st3{stroke-dasharray:2.5799,4.6907}.st4{stroke-linejoin:round}</style><path class="st0" d="M2.1 7v59c0 2.8 2.3 5 5 5H34c2.8 0 5-2.3 5-5V7c0-2.8-2.3-5-5-5H7.2C4.4 2 2.1 4.3 2.1 7z"/><path class="st1" d="M2.1 10H39v51.8H2.1zM20.6 67.4c-.4 0-.7-.1-.9-.3-.3-.2-.4-.5-.4-1 0-.3.1-.6.4-.9.2-.3.5-.4.9-.4s.7.1.9.4c.3.2.4.5.4.9s-.1.7-.4 1c-.3.2-.6.3-.9.3z"/><g><path class="st0" d="M121.6 71H62.7c-2.8 0-5-2.3-5-5V39.1c0-2.8 2.3-5 5-5h58.9c2.8 0 5 2.3 5 5V66c0 2.7-2.2 5-5 5z"/><path class="st1" d="M66.9 34.1h51.8V71H66.9zM61.6 51.6c.2-.3.5-.4 1-.4.4 0 .7.1.9.4.2.3.4.6.4.9 0 .4-.1.7-.4.9-.3.2-.5.4-.9.4s-.7-.1-1-.4c-.2-.3-.3-.6-.3-.9-.1-.3.1-.6.3-.9z"/></g><g><path class="st2" d="M64.5 19.6c-.2-.3-.3-.7-.5-1"/><path class="st3" d="M61.3 14.8c-2.7-3-6.4-5.1-10.5-5.8"/><path class="st2" d="M48.5 8.7h-1.1"/><path class="st4" d="M67.2 22.8L65.9 25l-2.1-1.5"/></g></svg>