<?xml version="1.0" standalone="no"?>
<!DOCTYPE svg PUBLIC "-//W3C//DTD SVG 20010904//EN" "http://www.w3.org/TR/2001/REC-SVG-20010904/DTD/svg10.dtd">
<svg version="1.0" xmlns="http://www.w3.org/2000/svg"  width="201.000000pt" height="200.000000pt" viewBox="0 0 201.000000 200.000000"  preserveAspectRatio="xMidYMid meet">
<g transform="translate(0.000000,200.000000) scale(0.100000,-0.100000)" fill="#45628c" stroke="none">
<path d="M735 1993 c-165 -13 -348 -92 -463 -198 -176 -163 -262 -355 -262 -584 0 -136 26 -246 85 -360 121 -232 334 -384 595 -422 185 -27 367 17 567 137 l32 19 286 -285 c157 -157 297 -288 310 -292 63 -16 114 28 117 100 l1 44 -287 287 -288 288 41 68 c77 128 111 251 111 406 0 117 -13 191 -51 290 -123 319 -455 529 -794 502z m215 -208 c95 -25 198 -84 270 -155 241 -238 239 -617 -5 -849 -120 -114 -253 -166 -420 -165 -161 1 -301 61 -417 176 -74 75 -137 189 -157 286 -16 76 -14 208 4 276 52 199 228 377 426 430 71 19 229 20 299 1z"/>
</g>
</svg>