<?xml version="1.0" standalone="no"?>
<!DOCTYPE svg PUBLIC "-//W3C//DTD SVG 20010904//EN"
 "http://www.w3.org/TR/2001/REC-SVG-20010904/DTD/svg10.dtd">
<svg version="1.0" xmlns="http://www.w3.org/2000/svg"
 width="249.000000pt" height="142.000000pt" viewBox="0 0 249.000000 142.000000"
 preserveAspectRatio="xMidYMid meet">

<g transform="translate(0.000000,142.000000) scale(0.100000,-0.100000)"
fill="#45628c" stroke="none">
<path d="M1070 1409 c-363 -42 -707 -191 -972 -423 -49 -42 -88 -80 -88 -84 0
-4 38 -45 85 -92 l84 -84 48 45 c270 251 648 399 1018 399 369 0 751 -150
1018 -399 l48 -45 84 84 c47 47 85 88 85 92 0 15 -177 162 -264 219 -342 225
-764 331 -1146 288z"/>
<path d="M1120 904 c-170 -25 -273 -53 -399 -110 -86 -40 -243 -143 -314 -207
l-47 -43 84 -88 85 -87 74 59 c135 107 260 171 413 209 97 24 361 24 458 0
149 -37 280 -104 411 -208 l76 -60 85 88 84 88 -37 33 c-216 187 -438 289
-696 322 -77 9 -222 12 -277 4z"/>
</g>
</svg>
