<?xml version="1.0" standalone="no"?>
<!DOCTYPE svg PUBLIC "-//W3C//DTD SVG 20010904//EN"
 "http://www.w3.org/TR/2001/REC-SVG-20010904/DTD/svg10.dtd">
<svg version="1.0" xmlns="http://www.w3.org/2000/svg"
 width="522.000000pt" height="522.000000pt" viewBox="0 0 522.000000 522.000000"
 preserveAspectRatio="xMidYMid meet">

<g transform="translate(0.000000,522.000000) scale(0.100000,-0.100000)"
fill="#000000" stroke="none">
<path d="M2270 5191 c-449 -63 -851 -226 -1205 -490 -130 -96 -151 -114 -269
-230 -431 -421 -689 -938 -767 -1536 -28 -211 -23 -542 11 -735 127 -734 519
-1342 1130 -1751 115 -78 390 -228 390 -214 0 3 10 -1 23 -9 25 -17 154 -66
267 -101 526 -167 1133 -149 1667 51 171 64 454 210 553 286 14 11 59 44 100
74 107 79 151 118 274 240 122 123 161 167 240 274 30 41 63 86 74 100 76 99
222 382 286 553 200 534 218 1141 51 1667 -35 113 -84 242 -101 268 -8 12 -12
22 -9 22 14 0 -136 275 -214 390 -409 611 -1016 1002 -1751 1130 -181 32 -559
37 -750 11z m467 -181 c83 -5 196 -16 250 -25 938 -150 1707 -850 1948 -1774
92 -350 99 -763 19 -1120 -204 -910 -915 -1621 -1825 -1825 -357 -80 -770 -73
-1120 19 -425 111 -816 338 -1119 651 -413 426 -645 951 -679 1538 -77 1313
930 2451 2243 2535 67 5 123 9 126 9 3 1 73 -3 157 -8z"/>
<path d="M2484 4077 c-68 -33 -115 -76 -144 -134 l-25 -48 -3 -492 -3 -492
-497 -3 -497 -3 -51 -27 c-148 -78 -206 -251 -133 -396 33 -66 88 -119 155
-149 35 -16 86 -18 532 -21 l492 -3 0 -482 0 -482 24 -50 c32 -70 113 -141
184 -161 147 -43 299 25 369 165 17 33 18 76 21 523 l3 487 487 4 c388 2 495
6 527 17 23 8 66 40 102 75 50 51 65 72 78 120 42 144 -19 283 -158 357 -42
23 -45 23 -539 26 l-497 3 -3 487 c-3 486 -3 487 -26 534 -28 56 -82 112 -137
141 -29 15 -63 22 -125 24 -74 4 -92 1 -136 -20z"/>
</g>
</svg>
