<?xml version="1.0" standalone="no"?>
<!DOCTYPE svg PUBLIC "-//W3C//DTD SVG 20010904//EN"
 "http://www.w3.org/TR/2001/REC-SVG-20010904/DTD/svg10.dtd">
<svg version="1.0" xmlns="http://www.w3.org/2000/svg"
 width="416.000000pt" height="415.000000pt" viewBox="0 0 416.000000 415.000000"
 preserveAspectRatio="xMidYMid meet">

<g transform="translate(0.000000,415.000000) scale(0.100000,-0.100000)"
fill="#000000" stroke="none">
<path d="M1855 4134 c-230 -33 -473 -101 -648 -182 -431 -200 -803 -571 -1004
-999 -64 -136 -137 -365 -165 -513 -20 -111 -23 -153 -22 -380 0 -237 2 -264
28 -385 83 -397 260 -739 526 -1018 194 -203 369 -333 605 -447 225 -110 455
-176 694 -201 139 -14 407 -6 541 16 879 148 1567 836 1715 1715 22 134 30
402 16 541 -70 664 -456 1254 -1043 1593 -183 106 -398 186 -623 232 -115 23
-157 27 -360 29 -126 2 -243 1 -260 -1z m543 -175 c701 -119 1282 -621 1502
-1298 66 -203 82 -306 87 -546 4 -183 2 -227 -17 -340 -100 -601 -453 -1100
-983 -1389 -183 -100 -387 -169 -612 -206 -174 -29 -490 -25 -658 9 -585 119
-1084 496 -1346 1020 -146 289 -203 532 -204 861 0 222 19 358 80 559 223 738
887 1279 1658 1351 126 12 360 2 493 -21z"/>
<path d="M2850 3085 l-115 -115 123 -123 122 -123 -31 -29 -31 -30 -119 124
-119 123 -128 -120 c-70 -67 -392 -387 -717 -711 l-590 -591 128 -127 127
-128 710 710 710 710 60 -60 60 -60 -270 -270 c-148 -149 -270 -278 -270 -287
0 -17 35 -48 54 -48 16 0 606 593 606 609 0 7 -38 53 -85 101 l-86 87 116 111
c66 63 115 118 115 129 0 25 -210 233 -235 233 -13 0 -65 -45 -135 -115z"/>
<path d="M1069 1182 c-69 -130 -122 -238 -117 -240 4 -2 8 -19 8 -38 l0 -34
1120 0 1120 0 0 50 0 50 -1092 2 -1093 3 202 105 c112 58 202 108 200 112 -2
6 -217 228 -221 228 -1 0 -58 -107 -127 -238z"/>
</g>
</svg>
